<?xml version="1.0" encoding="UTF-8"?>
<svg id="Layer_1" data-name="Layer 1" xmlns="http://www.w3.org/2000/svg" viewBox="0 0 1682.16 585.47">
  <defs>
    <style>
      .cls-1 {
        fill: #03313c;
      }
    </style>
  </defs>
  <path class="cls-1" d="M753.38,449.06v136.4l-104.23-1.52.02-307.29c17.45-201.66,330.79-219.92,374.43-25.02,34.81,155.44-135.89,262.05-270.23,197.43ZM825.07,208.87c-29.41,3.52-60.55,30.27-68.55,58.66-21.72,77.1,67.01,135.05,131.62,90.24,73.5-50.98,25.54-159.51-63.07-148.9Z"/>
  <path class="cls-1" d="M1214.39,103.15c136.25-12.08,241.79,112.7,200.26,244.7-46.11,146.56-244.1,176.89-333.01,51.12-81.79-115.7-8.58-283.3,132.75-295.82ZM1235.82,193.53c-23.7.48-46.79,12.05-61.75,30.22-32.62,39.6-16.15,96.44,11.77,133.87,6.56,8.79,41.68,46.92,51.08,46.92,3.43,0,13.6-8.13,16.81-10.69,41.67-33.15,80.22-97.44,57.8-151.2-12.05-28.88-44.44-49.75-75.72-49.12Z"/>
  <path class="cls-1" d="M362.34,301.72l-260.33,1.75c10.05,68.91,96.14,93.98,142.51,41.37l55.19,80.48C199.65,510.78,32.9,459.47,4.67,329.53-39.76,125.02,245.27,31.89,341.36,204.35c15.9,28.54,25.72,64.82,20.98,97.37ZM243.01,237.56c-27.55-36.1-81.76-38.56-114.97-8.45-2.34,2.12-6.19,4.98-6.11,8.45h121.08Z"/>
  <path class="cls-1" d="M1599.39,0v127.21h68.97l-22.99,88.89h-45.98v109.58c0,3.41,3.16,16.14,4.85,19.67,12.26,25.64,54.63,25.88,77.91,17.89l-29.88,102.67c-1.7,2-9.33,2.97-12.21,3.12-97.54,5.06-141.25-48.38-144.95-140.23-1.51-37.44,1.26-75.26.06-112.71h-67.44l22.99-88.89h44.45V0h104.22Z"/>
  <path class="cls-1" d="M538.29,373.45c8.2-8.19,8.57-22.01-1.12-29.26-13.49-10.09-57.57-16.05-76.2-21.89-40.07-12.57-68.54-35.86-73.7-79.56-15.47-130.89,137.4-159.56,225.58-95.31,4.16,3.03,16.88,10.8,13.4,15.86l-53.7,53.64c-21.65-12.76-51.4-24.58-76.62-15.33-19.24,7.06-15.32,28.73,1.4,36.84,22.55,10.94,59.46,13.16,84.37,22.91,32.66,12.79,52.8,35.76,58.05,70.69,22.69,150.94-182.74,169.73-267.63,90.24,7.03-7.62,47.1-66.89,51.17-68.13,2.8-.85,14.77,10.54,18.76,13.13,21.77,14.13,76.34,26.04,96.24,6.18Z"/>
  <path class="cls-1" d="M1229.62,242.52c48.8-8.29,53.48,61.89,10.16,65.41-41.6,3.38-48.69-58.86-10.16-65.41Z"/>
</svg>